<svg xmlns="http://www.w3.org/2000/svg" viewBox="-5 -10 110 135" aria-hidden="true">
  <path
    fill="#e2e2e2"
    d="m49.996 2.9414c-6.6406 0-12.051 5.418-12.051 12.062 0 6.6406 5.4102 12.051 12.051 12.051s12.059-5.4062 12.059-12.051c0-6.6406-5.418-12.062-12.059-12.062zm0 2.9414c5.0508 0 9.1211 4.0664 9.1211 9.1211 0 5.0508-4.0703 9.1094-9.1211 9.1094-5.0508 0-9.1094-4.0547-9.1094-9.1094 0-5.0508 4.0586-9.1211 9.1094-9.1211zm-35.453 22.285c-3.2344 0-5.8867 2.6523-5.8867 5.8867 0 3.2344 2.6523 5.8828 5.8867 5.8828h20.875v50.492c0 3.6484 2.9844 6.6328 6.6328 6.6328 3.6484 0 6.625-2.9844 6.625-6.6328v-24.426h2.6484v24.426c0 3.6484 2.9844 6.6328 6.6328 6.6328 3.6484 0 6.6367-2.9844 6.6367-6.6328v-50.492h20.875c3.2344 0 5.8828-2.6484 5.8828-5.8828 0-3.2344-2.6484-5.8867-5.8828-5.8867zm0 2.9414h70.918c1.6523 0 2.9414 1.2891 2.9414 2.9453s-1.2891 2.9414-2.9414 2.9414h-22.352c-0.80859 0-1.4648 0.65625-1.4648 1.4648v51.969c0 2.0703-1.6211 3.6914-3.6914 3.6914-2.0664 0-3.6914-1.6211-3.6914-3.6914v-25.906c-0.003907-0.80469-0.65625-1.4609-1.4648-1.4648h-5.5898c-0.80859 0.003906-1.4648 0.65625-1.4688 1.4648v25.902c0 2.0703-1.6211 3.6914-3.6914 3.6914-2.0664 0-3.6914-1.6211-3.6914-3.6914v-51.969 0.003907c0-0.80859-0.65625-1.4648-1.4648-1.4648h-22.352c-1.6523 0-2.9414-1.2852-2.9414-2.9414s1.2891-2.9453 2.9414-2.9453z"
  />
</svg>
